# Blender 3.3.1
# www.blender.org
mtllib barrel_002.mtl
o barrel_002
v -0.204803 -0.000007 -0.204791
v -0.289627 -0.000007 -0.000001
v -0.204803 -0.000007 0.204791
v -0.000008 -0.000007 0.289622
v 0.204787 -0.000007 0.204791
v 0.289612 -0.000007 -0.000001
v 0.204787 -0.000007 -0.204791
v -0.000008 -0.000007 -0.289622
v -0.175349 0.839429 -0.175338
v -0.247973 0.839429 -0.000001
v -0.175349 0.839429 0.175338
v -0.000008 0.839428 0.247967
v 0.175333 0.839428 0.175338
v 0.247957 0.839428 -0.000001
v 0.175333 0.839428 -0.175338
v -0.000008 0.839428 -0.247967
v -0.180295 0.850388 -0.034250
v -0.194485 0.850388 0.000001
v -0.180295 0.850388 0.034252
v -0.146043 0.850388 0.048440
v -0.111791 0.850388 0.034252
v -0.097601 0.850388 0.000001
v -0.111791 0.850388 -0.034250
v -0.146043 0.850388 -0.048438
v -0.204803 0.524287 -0.204791
v -0.204803 0.594946 -0.204791
v -0.218323 0.559617 -0.218311
v -0.204803 0.244476 -0.204791
v -0.204803 0.315134 -0.204791
v -0.218323 0.279805 -0.218311
v -0.289627 0.315134 -0.000001
v -0.289627 0.244476 -0.000001
v -0.308747 0.279805 -0.000001
v -0.289627 0.594946 -0.000001
v -0.289627 0.524287 -0.000001
v -0.308747 0.559617 -0.000001
v -0.204803 0.315134 0.204791
v -0.204803 0.244476 0.204791
v -0.218323 0.279805 0.218311
v -0.204803 0.594946 0.204791
v -0.204803 0.524287 0.204791
v -0.218323 0.559617 0.218311
v -0.000008 0.315134 0.289622
v -0.000008 0.244476 0.289622
v -0.000008 0.279805 0.308742
v -0.000008 0.594946 0.289622
v -0.000008 0.524287 0.289622
v -0.000008 0.559617 0.308742
v 0.204787 0.315134 0.204791
v 0.204787 0.244475 0.204791
v 0.218307 0.279805 0.218311
v 0.204787 0.594946 0.204791
v 0.204787 0.524287 0.204791
v 0.218307 0.559617 0.218311
v 0.289611 0.315134 -0.000001
v 0.289611 0.244475 -0.000001
v 0.308731 0.279805 -0.000001
v 0.289611 0.594946 -0.000001
v 0.289611 0.524287 -0.000001
v 0.308731 0.559617 -0.000001
v 0.204787 0.315134 -0.204791
v 0.204787 0.244475 -0.204791
v 0.218307 0.279805 -0.218311
v 0.204787 0.594946 -0.204791
v 0.204787 0.524287 -0.204791
v 0.218307 0.559617 -0.218311
v -0.000008 0.315134 -0.289622
v -0.000008 0.244476 -0.289622
v -0.000008 0.279805 -0.308742
v -0.000008 0.594946 -0.289622
v -0.000008 0.524287 -0.289622
v -0.000008 0.559617 -0.308742
v -0.289627 0.839429 -0.000001
v -0.204803 0.839429 0.204791
v -0.000008 0.839428 0.289622
v 0.204787 0.839428 0.204791
v 0.289611 0.839428 -0.000001
v 0.204787 0.839428 -0.204791
v -0.000008 0.839428 -0.289622
v -0.204803 0.839429 -0.204791
v -0.234903 0.823403 -0.000001
v -0.166106 0.823403 0.166095
v -0.000008 0.823403 0.234896
v 0.166090 0.823403 0.166095
v 0.234886 0.823403 -0.000001
v 0.166090 0.823403 -0.166095
v -0.000008 0.823403 -0.234897
v -0.166106 0.823403 -0.166095
v -0.194485 0.810221 0.000001
v -0.180295 0.810221 0.034252
v -0.146043 0.810221 0.048440
v -0.111791 0.810221 0.034252
v -0.097601 0.810221 0.000001
v -0.111791 0.810221 -0.034250
v -0.146043 0.810221 -0.048438
v -0.180295 0.810221 -0.034250
vn -0.0000 0.6320 0.7749
vn 0.5480 0.6320 0.5480
vn -1.0000 -0.0000 -0.0000
vn -0.7071 -0.0000 0.7071
vn -0.0000 -0.0000 1.0000
vn 0.7071 -0.0000 0.7071
vn 1.0000 -0.0000 -0.0000
vn 0.7071 -0.0000 -0.7071
vn -0.0000 -0.0000 -1.0000
vn -0.7071 -0.0000 -0.7071
vn -0.0000 1.0000 -0.0000
vn -0.0000 -1.0000 -0.0000
vn -0.0000 -0.4760 -0.8795
vn -0.6219 -0.4760 -0.6219
vn -0.6219 0.4760 -0.6219
vn -0.0000 0.4760 -0.8795
vn 0.6219 0.4760 -0.6219
vn 0.6219 -0.4760 -0.6219
vn 0.8795 0.4760 -0.0000
vn 0.8795 -0.4760 -0.0000
vn 0.6219 0.4760 0.6219
vn 0.6219 -0.4760 0.6219
vn -0.0000 0.4760 0.8795
vn -0.0000 -0.4760 0.8795
vn -0.6219 0.4760 0.6219
vn -0.6219 -0.4760 0.6219
vn -0.8795 -0.4760 -0.0000
vn -0.8795 0.4760 -0.0000
vn -0.7749 0.6320 -0.0000
vn -0.5480 0.6320 0.5480
vn -0.0000 0.6320 -0.7749
vn -0.5480 0.6320 -0.5480
vn 0.7749 0.6320 -0.0000
vn 0.5480 0.6320 -0.5480
vn -0.7764 -0.6303 -0.0000
vn -0.5490 -0.6303 -0.5490
vn -0.0000 -0.6303 -0.7764
vn 0.5490 -0.6303 -0.5490
vn 0.7764 -0.6303 -0.0000
vn 0.5490 -0.6303 0.5490
vn -0.0000 -0.6303 0.7764
vn -0.5490 -0.6303 0.5490
vt 0.011565 0.260180
vt 0.012824 0.260180
vt 0.011723 0.260180
vt 0.011880 0.260180
vt 0.012037 0.260180
vt 0.012195 0.260180
vt 0.012352 0.260180
vt 0.012510 0.260180
vt 0.012667 0.260180
vt 0.013123 0.276831
vt 0.013285 0.276831
vt 0.013589 0.276831
vt 0.013900 0.276831
vt 0.014213 0.276831
vt 0.014524 0.276831
vt 0.014828 0.276831
vt 0.014990 0.276831
vt 0.876512 0.106009
vt 0.878128 0.106309
vt 0.879744 0.106009
vt 0.880414 0.105285
vt 0.879744 0.104561
vt 0.878128 0.104261
vt 0.876512 0.104561
vt 0.875842 0.105285
vt 0.011806 0.258921
vt 0.013065 0.258921
vt 0.013065 0.327029
vt 0.011806 0.327029
vt 0.013097 0.259609
vt 0.013097 0.326726
vt 0.011838 0.326726
vt 0.011838 0.259609
vt 0.013081 0.326877
vt 0.011822 0.326877
vt 0.011677 0.259130
vt 0.012936 0.259130
vt 0.012936 0.328231
vt 0.011677 0.328231
vt 0.011710 0.259819
vt 0.012969 0.259819
vt 0.012969 0.327927
vt 0.011710 0.327927
vt 0.012953 0.328079
vt 0.011694 0.328079
vt 0.011867 0.259819
vt 0.011867 0.327927
vt 0.011835 0.259130
vt 0.011835 0.328231
vt 0.011851 0.328079
vt 0.011995 0.326726
vt 0.011995 0.259609
vt 0.011963 0.258921
vt 0.011963 0.327029
vt 0.011979 0.326877
vt 0.012024 0.259819
vt 0.012024 0.327927
vt 0.011992 0.259130
vt 0.011992 0.328231
vt 0.012008 0.328079
vt 0.012153 0.259609
vt 0.012153 0.326726
vt 0.012120 0.258921
vt 0.012120 0.327029
vt 0.012136 0.326877
vt 0.012182 0.259819
vt 0.012182 0.327927
vt 0.012149 0.259130
vt 0.012149 0.328231
vt 0.012166 0.328079
vt 0.012310 0.259609
vt 0.012310 0.326726
vt 0.012278 0.258921
vt 0.012278 0.327029
vt 0.012294 0.326877
vt 0.012339 0.259819
vt 0.012339 0.327927
vt 0.012307 0.259130
vt 0.012307 0.328231
vt 0.012323 0.328079
vt 0.012467 0.259609
vt 0.012467 0.326726
vt 0.012435 0.258921
vt 0.012435 0.327029
vt 0.012451 0.326877
vt 0.012497 0.259819
vt 0.012497 0.327927
vt 0.012464 0.259130
vt 0.012464 0.328231
vt 0.012480 0.328079
vt 0.012625 0.259609
vt 0.012625 0.326726
vt 0.012592 0.258921
vt 0.012592 0.327029
vt 0.012609 0.326877
vt 0.012654 0.259819
vt 0.012654 0.327927
vt 0.012622 0.259130
vt 0.012622 0.328231
vt 0.012638 0.328079
vt 0.012782 0.259609
vt 0.012782 0.326726
vt 0.012750 0.258921
vt 0.012750 0.327029
vt 0.012766 0.326877
vt 0.012811 0.259819
vt 0.012811 0.327927
vt 0.012779 0.259130
vt 0.012779 0.328231
vt 0.012795 0.328079
vt 0.012939 0.259609
vt 0.012939 0.326726
vt 0.012907 0.258921
vt 0.012907 0.327029
vt 0.012923 0.326877
vt 0.012107 0.258559
vt 0.013230 0.276831
vt 0.012265 0.258559
vt 0.013561 0.276831
vt 0.012422 0.258559
vt 0.013891 0.276831
vt 0.012579 0.258559
vt 0.014222 0.276831
vt 0.012737 0.258559
vt 0.014552 0.276831
vt 0.012894 0.258559
vt 0.014883 0.276831
vt 0.013051 0.258559
vt 0.015213 0.276831
vt 0.013209 0.258559
vt 0.011950 0.258559
vt 0.012900 0.276831
vt 0.013285 0.276831
vt 0.013589 0.276831
vt 0.013900 0.276831
vt 0.014213 0.276831
vt 0.014524 0.276831
vt 0.014828 0.276831
vt 0.014990 0.276831
vt 0.013123 0.276831
vt 0.878128 0.106309
vt 0.879744 0.106009
vt 0.880414 0.105285
vt 0.879744 0.104561
vt 0.878128 0.104261
vt 0.876512 0.104561
vt 0.875842 0.105285
vt 0.876512 0.106009
s 1
usemtl Material
f 16/17/1 9/10/2 88/140/2 87/139/1
f 32/48/3 2/3/3 3/4/4 38/58/4
f 35/53/3 31/46/3 37/56/4 41/63/4
f 4/5/5 5/6/6 50/78/6 44/68/5
f 5/6/6 6/7/7 56/88/7 50/78/6
f 6/7/7 7/8/8 62/98/8 56/88/7
f 7/8/8 8/9/9 68/108/9 62/98/8
f 28/36/10 1/1/10 2/3/3 32/48/3
f 18/19/11 19/20/11 20/21/11 21/22/11 22/23/11 23/24/11 24/25/11 17/18/11
f 1/2/12 8/9/12 7/8/12 6/7/12 5/6/12 4/5/12 3/4/12 2/3/12
f 25/26/10 29/40/10 31/46/3 35/53/3
f 28/37/10 68/108/9 8/9/9 1/2/10
f 61/96/8 67/106/9 71/113/9 65/103/8
f 64/101/8 70/111/9 79/128/9 78/126/8
f 55/86/7 61/96/8 65/103/8 59/93/7
f 58/91/7 64/101/8 78/126/8 77/124/7
f 49/76/6 55/86/7 59/93/7 53/83/6
f 52/81/6 58/91/7 77/124/7 76/122/6
f 43/66/5 49/76/6 53/83/6 47/73/5
f 46/71/5 52/81/6 76/122/6 75/120/5
f 37/56/4 43/66/5 47/73/5 41/63/4
f 40/61/4 46/71/5 75/120/5 74/118/4
f 3/4/4 4/5/5 44/68/5 38/58/4
f 73/116/3 34/52/3 40/61/4 74/118/4
f 80/130/10 79/128/9 70/111/9 26/30/10
f 25/27/10 71/113/9 67/106/9 29/41/10
f 71/114/13 25/28/14 27/34/10 72/115/9
f 72/115/9 27/34/10 26/31/15 70/112/16
f 68/109/13 28/38/14 30/44/10 69/110/9
f 69/110/9 30/44/10 29/42/15 67/107/16
f 67/107/16 61/97/17 63/100/8 69/110/9
f 69/110/9 63/100/8 62/99/18 68/109/13
f 70/112/16 64/102/17 66/105/8 72/115/9
f 72/115/9 66/105/8 65/104/18 71/114/13
f 61/97/17 55/87/19 57/90/7 63/100/8
f 63/100/8 57/90/7 56/89/20 62/99/18
f 64/102/17 58/92/19 60/95/7 66/105/8
f 66/105/8 60/95/7 59/94/20 65/104/18
f 55/87/19 49/77/21 51/80/6 57/90/7
f 57/90/7 51/80/6 50/79/22 56/89/20
f 58/92/19 52/82/21 54/85/6 60/95/7
f 60/95/7 54/85/6 53/84/22 59/94/20
f 49/77/21 43/67/23 45/70/5 51/80/6
f 51/80/6 45/70/5 44/69/24 50/79/22
f 52/82/21 46/72/23 48/75/5 54/85/6
f 54/85/6 48/75/5 47/74/24 53/84/22
f 43/67/23 37/57/25 39/60/4 45/70/5
f 45/70/5 39/60/4 38/59/26 44/69/24
f 46/72/23 40/62/25 42/65/4 48/75/5
f 48/75/5 42/65/4 41/64/26 47/74/24
f 35/54/27 41/64/26 42/65/4 36/55/3
f 36/55/3 42/65/4 40/62/25 34/51/28
f 32/49/27 38/59/26 39/60/4 33/50/3
f 33/50/3 39/60/4 37/57/25 31/47/28
f 25/29/14 35/54/27 36/55/3 27/35/10
f 27/35/10 36/55/3 34/51/28 26/32/15
f 28/39/14 32/49/27 33/50/3 30/45/10
f 30/45/10 33/50/3 31/47/28 29/43/15
f 80/131/10 26/33/10 34/52/3 73/116/3
f 11/12/11 10/11/11 73/117/11 74/119/11
f 12/13/11 11/12/11 74/119/11 75/121/11
f 13/14/11 12/13/11 75/121/11 76/123/11
f 14/15/11 13/14/11 76/123/11 77/125/11
f 15/16/11 14/15/11 77/125/11 78/127/11
f 16/17/11 15/16/11 78/127/11 79/129/11
f 9/10/11 16/17/11 79/129/11 80/132/11
f 10/11/11 9/10/11 80/132/11 73/117/11
f 81/133/11 82/134/11 83/135/11 84/136/11 85/137/11 86/138/11 87/139/11 88/140/11
f 14/15/29 15/16/30 86/138/30 85/137/29
f 12/13/31 13/14/32 84/136/32 83/135/31
f 10/11/33 11/12/34 82/134/34 81/133/33
f 9/10/2 10/11/33 81/133/33 88/140/2
f 15/16/30 16/17/1 87/139/1 86/138/30
f 13/14/32 14/15/29 85/137/29 84/136/32
f 11/12/34 12/13/31 83/135/31 82/134/34
f 89/141/35 96/148/36 95/147/37 94/146/38 93/145/39 92/144/40 91/143/41 90/142/42
f 24/25/9 95/147/37 96/148/36 17/18/10
f 22/23/7 93/145/39 94/146/38 23/24/8
f 20/21/5 91/143/41 92/144/40 21/22/6
f 18/19/3 89/141/35 90/142/42 19/20/4
f 17/18/10 96/148/36 89/141/35 18/19/3
f 23/24/8 94/146/38 95/147/37 24/25/9
f 21/22/6 92/144/40 93/145/39 22/23/7
f 19/20/4 90/142/42 91/143/41 20/21/5
