# Blender 3.3.1
# www.blender.org
mtllib box_008.mtl
o box_008
v 0.311373 -0.000004 0.311365
v 0.311373 -0.000004 -0.311365
v 0.311373 0.622726 0.311365
v 0.311373 0.622726 -0.311365
v -0.311362 0.622726 0.311365
v -0.311362 0.622726 -0.311365
v 0.311382 0.533483 0.219270
v 0.311382 0.533483 -0.221121
v -0.311352 0.533483 -0.221121
v -0.311352 0.533483 0.219270
v 0.311382 0.091162 0.219270
v 0.311382 0.091162 -0.221121
v -0.311352 0.091162 -0.221121
v -0.311352 0.091162 0.219270
v -0.217114 0.622726 0.219270
v -0.217114 0.622726 -0.221121
v -0.217114 0.533483 -0.311366
v -0.217114 0.091162 -0.311366
v -0.217114 0.091162 0.311364
v -0.217114 0.533483 0.311364
v 0.212349 0.622726 0.219270
v 0.212349 0.622726 -0.221121
v 0.212349 0.533483 -0.311366
v 0.212349 0.091162 -0.311366
v 0.212349 0.091162 0.311364
v 0.212349 0.533483 0.311364
v -0.001420 0.366803 -0.000555
v 0.289644 0.022049 0.290512
v 0.289644 0.022049 -0.291622
v 0.289644 0.604182 0.290512
v 0.289644 0.604182 -0.291622
v -0.292485 0.604182 0.290511
v -0.292485 0.604182 -0.291622
v -0.292485 0.022049 0.290511
v -0.292485 0.022049 -0.291622
v -0.311365 0.000003 0.311365
v -0.311365 0.000003 -0.311365
v 0.217121 0.000003 0.219270
v 0.217121 0.000003 -0.221121
v -0.212342 0.000003 0.219270
v -0.212342 0.000003 -0.221121
v 0.001428 0.255926 -0.000555
v -0.289636 0.018548 0.290512
v -0.289637 0.018548 -0.291622
v 0.292492 0.018547 0.290511
v 0.292492 0.018547 -0.291622
vn -1.0000 -0.0001 -0.0000
vn -0.0000 1.0000 -0.0000
vn 1.0000 0.0001 -0.0000
vn 1.0000 -0.0000 0.0001
vn 1.0000 -0.0000 -0.0001
vn -0.0000 -0.0000 -1.0000
vn -1.0000 -0.0000 0.0001
vn -1.0000 -0.0000 -0.0001
vn -0.0000 -0.0000 1.0000
vn 1.0000 -0.0001 -0.0000
vn -1.0000 0.0001 -0.0000
vn 0.4703 -0.8825 -0.0000
vn 0.5750 -0.0000 -0.8182
vn 0.6611 0.7503 -0.0000
vn 0.5763 -0.0000 0.8173
vn -0.6646 0.7472 -0.0000
vn -0.5785 -0.0000 -0.8157
vn -0.4736 -0.8807 -0.0000
vn -0.5798 -0.0000 0.8147
vn 0.7646 0.6444 -0.0000
vn -0.0000 0.6516 -0.7586
vn -0.7675 0.6411 -0.0000
vn -0.0000 0.6528 0.7575
vn -0.8239 -0.0000 -0.5667
vn -0.0000 0.7482 -0.6635
vn 0.8216 -0.0000 -0.5701
vn -0.0000 -0.8813 -0.4726
vn 0.8225 -0.0000 0.5688
vn -0.0000 0.7493 0.6622
vn -0.8249 -0.0000 0.5653
vn -0.0000 -0.8820 0.4713
vn 1.0000 -0.0000 -0.0000
vn -1.0000 -0.0000 -0.0000
vn -0.0001 -1.0000 -0.0000
vn -0.0000 -1.0000 -0.0000
vn -0.7646 -0.6444 -0.0000
vn -0.0000 -0.6516 -0.7586
vn 0.7675 -0.6411 -0.0000
vn -0.0000 -0.6528 0.7575
vt 0.747642 0.394759
vt 0.747642 0.394759
vt 0.747642 0.394759
vt 0.747642 0.394759
vt 0.747642 0.394759
vt 0.747642 0.394759
vt 0.747642 0.394759
vt 0.747642 0.394759
vt 0.747642 0.394759
vt 0.747642 0.394759
vt 0.747642 0.394759
vt 0.747642 0.394759
vt 0.747642 0.394759
vt 0.747642 0.394759
vt 0.747642 0.394759
vt 0.747642 0.394759
vt 0.747642 0.394759
vt 0.747642 0.394759
vt 0.747642 0.394759
vt 0.747642 0.394759
vt 0.747642 0.394759
vt 0.747642 0.394759
vt 0.747642 0.394759
vt 0.747642 0.394759
vt 0.747642 0.394759
vt 0.747642 0.394759
vt 0.747642 0.394759
vt 0.745975 0.375987
vt 0.745975 0.375987
vt 0.745975 0.375987
vt 0.745975 0.375987
vt 0.745975 0.375987
vt 0.745975 0.375987
vt 0.745975 0.375987
vt 0.745975 0.375987
vt 0.747642 0.394759
vt 0.747642 0.394759
vt 0.747642 0.394759
vt 0.747642 0.394759
vt 0.747642 0.394759
vt 0.747642 0.394759
vt 0.747642 0.394759
vt 0.745975 0.375987
vt 0.745975 0.375987
vt 0.745975 0.375987
vt 0.745975 0.375987
s 1
usemtl Material
f 9/9/1 10/10/1 5/5/1 6/6/1
f 5/5/2 15/15/2 16/16/2 6/6/2
f 3/3/3 7/7/3 8/8/3 4/4/3
f 1/1/4 11/11/4 7/7/4 3/3/4
f 4/4/5 8/8/5 12/12/5 2/2/5
f 17/17/6 18/18/6 37/37/6 6/6/6
f 37/37/7 13/13/7 9/9/7 6/6/7
f 5/5/8 10/10/8 14/14/8 36/36/8
f 36/36/9 19/19/9 20/20/9 5/5/9
f 12/12/10 11/11/10 1/1/10 2/2/10
f 36/36/11 14/14/11 13/13/11 37/37/11
f 3/3/2 21/21/2 15/15/2 5/5/2
f 6/6/2 16/16/2 22/22/2 4/4/2
f 4/4/6 23/23/6 17/17/6 6/6/6
f 24/24/6 2/2/6 37/37/6 18/18/6
f 19/19/9 36/36/9 1/1/9 25/25/9
f 5/5/9 20/20/9 26/26/9 3/3/9
f 22/22/2 21/21/2 3/3/2 4/4/2
f 2/2/6 24/24/6 23/23/6 4/4/6
f 26/26/9 25/25/9 1/1/9 3/3/9
f 8/8/12 7/7/12 27/27/12
f 7/7/13 11/11/13 27/27/13
f 11/11/14 12/12/14 27/27/14
f 12/12/15 8/8/15 27/27/15
f 13/13/16 14/14/16 27/27/16
f 14/14/17 10/10/17 27/27/17
f 10/10/18 9/9/18 27/27/18
f 9/9/19 13/13/19 27/27/19
f 16/16/20 15/15/20 27/27/20
f 15/15/21 21/21/21 27/27/21
f 21/21/22 22/22/22 27/27/22
f 22/22/23 16/16/23 27/27/23
f 23/23/24 24/24/24 27/27/24
f 24/24/25 18/18/25 27/27/25
f 18/18/26 17/17/26 27/27/26
f 17/17/27 23/23/27 27/27/27
f 20/20/28 19/19/28 27/27/28
f 19/19/29 25/25/29 27/27/29
f 25/25/30 26/26/30 27/27/30
f 26/26/31 20/20/31 27/27/31
f 28/28/32 29/29/32 31/31/32 30/30/32
f 30/30/2 31/31/2 33/33/2 32/32/2
f 32/32/33 33/33/33 35/35/33 34/34/33
f 29/29/6 35/35/6 33/33/6 31/31/6
f 34/34/9 28/28/9 30/30/9 32/32/9
f 1/1/34 38/38/34 39/39/34 2/2/34
f 36/36/35 40/40/35 38/38/35 1/1/35
f 2/2/35 39/39/35 41/41/35 37/37/35
f 41/41/35 40/40/35 36/36/35 37/37/35
f 39/39/36 38/38/36 42/42/36
f 38/38/37 40/40/37 42/42/37
f 40/40/38 41/41/38 42/42/38
f 41/41/39 39/39/39 42/42/39
f 43/43/35 44/44/35 46/46/35 45/45/35
