# Blender 3.3.1
# www.blender.org
mtllib target_002.mtl
o target_002
v -0.672845 0.000006 0.143793
v -0.672845 0.000006 -0.143793
v 0.672845 0.000006 0.143793
v 0.672845 0.000006 -0.143793
v -0.672845 0.710558 0.143793
v -0.672845 0.710558 -0.143793
v 0.672845 0.710558 -0.143793
v 0.672845 0.710558 0.143793
v -0.298365 2.404935 0.053230
v -0.298365 2.721286 0.053230
v -0.350690 2.353420 -0.053230
v -0.350690 2.772801 -0.053230
v 0.298365 2.404935 0.053230
v 0.298365 2.721286 0.053230
v 0.350690 2.353420 -0.053230
v 0.350690 2.772801 -0.053230
v -0.350690 2.353420 0.053230
v -0.350690 2.772801 0.053230
v 0.350690 2.772801 0.053230
v 0.350690 2.353420 0.053230
v -0.672845 2.353423 -0.053230
v 0.672845 2.353423 -0.053230
v -0.672845 0.710558 0.053230
v -0.672845 0.710558 -0.053230
v 0.672845 0.710558 -0.053230
v 0.672845 0.710558 0.053230
v -0.672845 2.353423 0.053230
v 0.111030 2.028416 0.053230
v 0.672845 2.353423 0.053230
v -0.111033 2.028416 0.053230
v -0.282391 2.174066 0.061574
v -0.205467 2.146990 0.061574
v -0.504666 1.975213 0.061574
v -0.457911 1.922610 0.061574
v 0.262219 2.112903 0.061574
v 0.288558 2.190083 0.061574
v 0.463191 1.892542 0.061574
v 0.503741 1.976929 0.061574
v -0.487356 1.073245 0.061574
v -0.461017 1.150425 0.061574
v -0.286384 0.852884 0.061574
v -0.234231 0.900140 0.061574
v 0.457691 1.117983 0.061574
v 0.542221 1.082129 0.061574
v 0.193886 0.910214 0.061574
v 0.242714 0.847804 0.061574
v 0.424286 0.929153 0.053230
v -0.424289 0.929153 0.053230
v -0.424289 2.134827 0.053230
v 0.424286 2.134827 0.053230
v -0.297842 1.729865 0.053230
v -0.185771 1.841936 0.053230
v 0.185772 1.841936 0.053230
v 0.297842 1.729865 0.053230
v -0.297842 1.309546 0.053230
v -0.139542 1.031047 0.053230
v 0.139542 1.031047 0.053230
v 0.297842 1.309546 0.053230
v 0.111032 1.841936 0.053230
v -0.111032 1.841936 0.053230
vn -0.0000 -1.0000 -0.0000
vn -0.0000 -0.0000 1.0000
vn 1.0000 -0.0000 -0.0000
vn -0.0000 -0.0000 -1.0000
vn -1.0000 -0.0000 -0.0000
vn -0.0000 1.0000 -0.0000
vt 0.816250 0.396522
vt 0.815928 0.396201
vt 0.815928 0.397487
vt 0.816250 0.396844
vt 0.815928 0.397166
vt 0.815928 0.396522
vt 0.815928 0.396844
vt 0.815831 0.396201
vt 0.815831 0.397487
vt 0.815831 0.397166
vt 0.815831 0.396844
vt 0.815831 0.396522
vt 0.013101 0.283501
vt 0.820591 0.368672
vt 0.012904 0.283501
vt 0.820394 0.368672
vt 0.820653 0.369605
vt 0.820975 0.369283
vt 0.820332 0.369605
vt 0.820010 0.369283
vt 0.013101 0.283759
vt 0.820591 0.368930
vt 0.012904 0.283759
vt 0.820394 0.368930
vt 0.820653 0.369283
vt 0.820332 0.369283
vt 0.820653 0.369926
vt 0.820975 0.368962
vt 0.820653 0.368640
vt 0.820332 0.369926
vt 0.820010 0.368962
vt 0.820332 0.368640
vt 0.820332 0.368962
vt 0.820653 0.368962
vt 0.814032 0.344406
vt 0.813710 0.344085
vt 0.814032 0.344085
vt 0.814256 0.344728
vt 0.814256 0.343442
vt 0.814256 0.344406
vt 0.814256 0.344085
vt 0.814256 0.343763
vt 0.814032 0.344728
vt 0.813710 0.343763
vt 0.814032 0.343442
vt 0.856356 0.706327
vt 0.761573 0.472320
vt 0.814032 0.343763
vt 0.856356 0.706306
vt 0.761573 0.472268
vt 0.775312 0.490049
vt 0.775312 0.490280
vt 0.775477 0.490049
vt 0.775477 0.490280
vt 0.775312 0.490049
vt 0.775312 0.490280
vt 0.775477 0.490049
vt 0.775477 0.490280
vt 0.775312 0.490049
vt 0.775312 0.490280
vt 0.775477 0.490049
vt 0.775477 0.490280
vt 0.775312 0.490049
vt 0.775312 0.490280
vt 0.775477 0.490049
vt 0.775477 0.490280
vt 0.814227 0.343718
vt 0.761716 0.472389
vt 0.814227 0.343487
vt 0.761716 0.472199
vt 0.814062 0.343576
vt 0.761562 0.472268
vt 0.814062 0.343718
vt 0.761562 0.472320
vt 0.856367 0.706288
vt 0.761601 0.472224
vt 0.856361 0.706299
vt 0.761585 0.472250
vt 0.856361 0.706334
vt 0.761585 0.472337
vt 0.856367 0.706345
vt 0.761601 0.472364
vt 0.856399 0.706288
vt 0.761680 0.472224
vt 0.856409 0.706303
vt 0.761704 0.472261
vt 0.856409 0.706330
vt 0.761704 0.472327
vt 0.856399 0.706345
vt 0.761680 0.472364
vt 0.856361 0.706327
vt 0.761585 0.472320
vt 0.761585 0.472268
vt 0.856361 0.706306
s 0
usemtl Material
f 2/4/1 4/7/1 3/6/1 1/1/1
f 3/6/2 8/12/2 5/8/2 1/2/2
f 4/7/3 7/11/3 8/12/3 3/6/3
f 2/5/4 6/10/4 7/11/4 4/7/4
f 1/3/5 5/9/5 6/10/5 2/5/5
f 8/12/6 7/11/6 6/10/6 5/9/6
f 17/27/5 18/30/5 12/19/5 11/17/5
f 11/17/4 12/19/4 16/26/4 15/25/4
f 15/25/3 16/26/3 19/33/3 20/34/3
f 13/21/2 14/23/2 10/15/2 9/13/2
f 11/18/1 15/25/1 20/34/1 17/28/1
f 16/26/6 12/20/6 18/31/6 19/33/6
f 9/14/2 10/16/2 18/32/2 17/29/2
f 14/24/2 13/22/2 20/34/2 19/33/2
f 13/22/2 9/14/2 17/29/2 20/34/2
f 10/16/2 14/24/2 19/33/2 18/32/2
f 23/38/5 27/43/5 21/35/5 24/40/5
f 24/40/4 21/35/4 22/37/4 25/41/4
f 25/41/3 22/37/3 29/48/3 26/42/3
f 57/87/2 58/89/2 54/81/2 53/79/2 59/91/2 60/94/2 52/77/2 51/75/2 55/83/2 56/85/2
f 22/37/6 21/36/6 27/44/6 29/48/6
f 48/69/2 49/71/2 27/45/2 23/39/2
f 50/73/2 47/67/2 26/42/2 29/48/2
f 47/67/2 48/69/2 23/39/2 26/42/2
f 34/54/2 32/52/2 31/51/2 33/53/2
f 38/58/2 36/56/2 35/55/2 37/57/2
f 42/62/2 40/60/2 39/59/2 41/61/2
f 46/66/2 44/64/2 43/63/2 45/65/2
f 48/70/2 55/84/2 51/76/2 49/72/2
f 47/68/2 57/88/2 56/86/2 48/70/2
f 51/76/2 52/78/2 49/72/2
f 53/80/2 54/82/2 50/74/2
f 50/74/2 54/82/2 58/90/2 47/68/2
f 55/84/2 48/70/2 56/86/2
f 57/88/2 47/68/2 58/90/2
f 49/71/2 50/73/2 29/48/2 27/45/2
f 49/72/2 52/78/2 60/93/2 30/50/2
f 59/91/2 28/46/2 30/49/2 60/94/2
f 50/74/2 28/47/2 59/92/2 53/80/2
f 30/50/2 28/47/2 50/74/2 49/72/2
