# Blender 3.3.1
# www.blender.org
mtllib target_001.mtl
o target_001
v 0.423741 -0.000004 -0.043735
v 0.423741 1.839401 -0.043735
v 0.461616 -0.000004 -0.021867
v 0.461616 1.839401 -0.021867
v 0.461616 -0.000004 0.021867
v 0.461616 1.839401 0.021867
v 0.423741 -0.000004 0.043735
v 0.423741 1.839401 0.043735
v 0.385865 -0.000004 0.021867
v 0.385865 1.839401 0.021867
v 0.385865 -0.000004 -0.021867
v 0.385865 1.839401 -0.021867
v -0.423735 -0.000003 -0.043735
v -0.423735 1.839401 -0.043735
v -0.385860 -0.000003 -0.021867
v -0.385860 1.839401 -0.021867
v -0.385860 -0.000003 0.021867
v -0.385860 1.839401 0.021867
v -0.423735 -0.000003 0.043735
v -0.423735 1.839401 0.043735
v -0.461611 -0.000003 0.021867
v -0.461611 1.839401 0.021867
v -0.461611 -0.000003 -0.021867
v -0.461611 1.839401 -0.021867
v 0.000005 2.285643 0.023698
v -0.019958 1.635970 0.092605
v 0.260058 2.233916 0.023698
v 0.029882 1.626056 0.092605
v 0.480520 2.086607 0.023698
v 0.627828 1.866146 0.023698
v 0.679556 1.606093 0.023698
v 0.627828 1.346040 0.023698
v 0.019968 1.576216 0.092605
v 0.480520 1.125578 0.023698
v 0.260058 0.978270 0.023698
v 0.000005 0.926543 0.023698
v -0.260047 0.978270 0.023698
v -0.029872 1.586130 0.092605
v -0.480509 1.125578 0.023698
v -0.627817 1.346040 0.023698
v -0.679545 1.606093 0.023698
v -0.627817 1.866146 0.023698
v -0.480509 2.086607 0.023698
v -0.260047 2.233916 0.023698
v 0.260058 2.233916 0.091268
v 0.000005 2.285643 0.091268
v 0.480520 2.086607 0.091268
v 0.627828 1.866146 0.091268
v 0.679556 1.606093 0.091268
v 0.627828 1.346040 0.091268
v 0.480520 1.125578 0.091268
v 0.260058 0.978270 0.091268
v 0.000005 0.926543 0.091268
v -0.260047 0.978270 0.091268
v -0.480509 1.125578 0.091268
v -0.627817 1.346040 0.091268
v -0.679545 1.606093 0.091268
v -0.627817 1.866146 0.091268
v -0.480509 2.086607 0.091268
v -0.260047 2.233916 0.091268
v 0.200383 2.089843 0.092605
v 0.000007 2.129701 0.092605
v 0.370253 1.976339 0.092605
v 0.483757 1.806469 0.092605
v 0.523615 1.606093 0.092605
v 0.483757 1.405717 0.092605
v 0.370253 1.235846 0.092605
v 0.200383 1.122342 0.092605
v 0.000007 1.082485 0.092605
v -0.200370 1.122342 0.092605
v -0.370240 1.235846 0.092605
v -0.483744 1.405717 0.092605
v -0.523601 1.606093 0.092605
v -0.483744 1.806469 0.092605
v -0.370240 1.976339 0.092605
v -0.200370 2.089843 0.092605
v 0.130082 1.920125 0.092605
v 0.000006 1.945998 0.092605
v 0.240355 1.846443 0.092605
v 0.314037 1.736170 0.092605
v 0.339911 1.606094 0.092605
v 0.314037 1.476018 0.092605
v 0.240355 1.365744 0.092605
v 0.130082 1.292062 0.092605
v 0.000006 1.266189 0.092605
v -0.130070 1.292062 0.092605
v -0.240343 1.365744 0.092605
v -0.314026 1.476018 0.092605
v -0.339899 1.606094 0.092605
v -0.314026 1.736170 0.092605
v -0.240343 1.846443 0.092605
v -0.130070 1.920125 0.092605
v 0.035852 1.786302 0.092605
v 0.152779 1.708174 0.092605
v 0.180214 1.570249 0.092605
v 0.102085 1.453322 0.092605
v -0.035839 1.425887 0.092605
v -0.152766 1.504015 0.092605
v -0.180201 1.641940 0.092605
v -0.102073 1.758867 0.092605
v -0.423727 0.474057 0.000000
v 0.423748 0.474057 -0.000000
v -0.423727 0.458546 -0.026866
v 0.423748 0.458546 -0.026866
v -0.423727 0.427524 -0.026866
v 0.423748 0.427524 -0.026866
v -0.423727 0.412013 0.000000
v 0.423748 0.412013 -0.000000
v -0.423727 0.427524 0.026866
v 0.423748 0.427524 0.026866
v -0.423727 0.458546 0.026866
v 0.423748 0.458546 0.026866
vn -0.0000 -0.0000 -1.0000
vn -0.0000 0.6100 -0.7924
vn 0.6862 0.6100 -0.3962
vn 0.8660 -0.0000 -0.5000
vn 0.6862 0.6100 0.3962
vn 0.8660 -0.0000 0.5000
vn -0.0000 0.6100 0.7924
vn -0.0000 -0.0000 1.0000
vn -0.6862 0.6100 0.3962
vn -0.8660 -0.0000 0.5000
vn -0.6862 0.6100 -0.3962
vn -0.8660 -0.0000 -0.5000
vn -0.0000 -1.0000 -0.0000
vn -0.0000 1.0000 -0.0000
vn 0.3827 0.9239 -0.0000
vn 0.7071 0.7071 -0.0000
vn 0.9239 0.3827 -0.0000
vn 1.0000 -0.0000 -0.0000
vn 0.9239 -0.3827 -0.0000
vn 0.7071 -0.7071 -0.0000
vn 0.3827 -0.9239 -0.0000
vn -0.3827 -0.9239 -0.0000
vn -0.7071 -0.7071 -0.0000
vn -0.9239 -0.3827 -0.0000
vn -1.0000 -0.0000 -0.0000
vn -0.9239 0.3827 -0.0000
vn -0.7071 0.7071 -0.0000
vn -0.3827 0.9239 -0.0000
vn -0.0000 0.0048 1.0000
vn 0.0018 0.0045 1.0000
vn 0.0033 0.0079 1.0000
vn -0.0000 0.0086 1.0000
vn 0.0034 0.0034 1.0000
vn 0.0061 0.0061 1.0000
vn 0.0045 0.0018 1.0000
vn 0.0079 0.0033 1.0000
vn 0.0048 -0.0000 1.0000
vn 0.0086 -0.0000 1.0000
vn 0.0045 -0.0018 1.0000
vn 0.0079 -0.0033 1.0000
vn 0.0034 -0.0034 1.0000
vn 0.0061 -0.0061 1.0000
vn 0.0018 -0.0045 1.0000
vn 0.0033 -0.0079 1.0000
vn -0.0000 -0.0048 1.0000
vn -0.0000 -0.0086 1.0000
vn -0.0018 -0.0045 1.0000
vn -0.0033 -0.0079 1.0000
vn -0.0034 -0.0034 1.0000
vn -0.0061 -0.0061 1.0000
vn -0.0045 -0.0018 1.0000
vn -0.0079 -0.0033 1.0000
vn -0.0048 -0.0000 1.0000
vn -0.0086 -0.0000 1.0000
vn -0.0045 0.0018 1.0000
vn -0.0079 0.0033 1.0000
vn -0.0034 0.0034 1.0000
vn -0.0061 0.0061 1.0000
vn -0.0018 0.0045 1.0000
vn -0.0033 0.0079 1.0000
vn -0.0000 0.5000 -0.8660
vn -0.0000 -0.5000 -0.8660
vn -0.0000 -0.5000 0.8660
vn -0.0000 0.5000 0.8660
vt 0.864570 0.179545
vt 0.865312 0.179545
vt 0.864756 0.179552
vt 0.864570 0.179174
vt 0.865127 0.179552
vt 0.865312 0.179174
vt 0.864601 0.179641
vt 0.864694 0.179174
vt 0.864973 0.179641
vt 0.864818 0.179545
vt 0.864601 0.179819
vt 0.864818 0.179174
vt 0.864973 0.179819
vt 0.864941 0.179545
vt 0.864756 0.179908
vt 0.864941 0.179174
vt 0.865127 0.179908
vt 0.865065 0.179545
vt 0.864910 0.179819
vt 0.865281 0.179819
vt 0.865065 0.179174
vt 0.865189 0.179545
vt 0.864910 0.179641
vt 0.865281 0.179641
vt 0.865189 0.179174
vt 0.864570 0.179545
vt 0.865312 0.179545
vt 0.864756 0.179552
vt 0.864570 0.179174
vt 0.865127 0.179552
vt 0.865312 0.179174
vt 0.864601 0.179641
vt 0.864694 0.179174
vt 0.864973 0.179641
vt 0.864818 0.179545
vt 0.864601 0.179819
vt 0.864818 0.179174
vt 0.864973 0.179819
vt 0.864941 0.179545
vt 0.864756 0.179908
vt 0.864941 0.179174
vt 0.865127 0.179908
vt 0.865065 0.179545
vt 0.864910 0.179819
vt 0.865281 0.179819
vt 0.865065 0.179174
vt 0.865189 0.179545
vt 0.864910 0.179641
vt 0.865281 0.179641
vt 0.865189 0.179174
vt 0.864570 0.179545
vt 0.865312 0.179545
vt 0.864756 0.179552
vt 0.007691 0.209806
vt 0.737685 0.400183
vt 0.864688 0.179566
vt 0.007683 0.209803
vt 0.737679 0.400189
vt 0.864630 0.179604
vt 0.864709 0.179545
vt 0.864591 0.179662
vt 0.864756 0.179545
vt 0.864578 0.179730
vt 0.864802 0.179545
vt 0.864591 0.179799
vt 0.007680 0.209811
vt 0.737685 0.400196
vt 0.864848 0.179545
vt 0.864630 0.179856
vt 0.864895 0.179545
vt 0.864688 0.179895
vt 0.864941 0.179545
vt 0.864756 0.179908
vt 0.864988 0.179545
vt 0.864824 0.179895
vt 0.007688 0.209814
vt 0.737692 0.400189
vt 0.865034 0.179545
vt 0.864882 0.179856
vt 0.865080 0.179545
vt 0.864920 0.179799
vt 0.865127 0.179545
vt 0.864934 0.179730
vt 0.865173 0.179545
vt 0.864920 0.179662
vt 0.865220 0.179545
vt 0.864882 0.179604
vt 0.865266 0.179545
vt 0.864824 0.179566
vt 0.864617 0.179174
vt 0.865059 0.179566
vt 0.864570 0.179174
vt 0.865312 0.179174
vt 0.865127 0.179552
vt 0.864663 0.179174
vt 0.865001 0.179604
vt 0.864709 0.179174
vt 0.864962 0.179662
vt 0.864756 0.179174
vt 0.864949 0.179730
vt 0.864802 0.179174
vt 0.864962 0.179799
vt 0.864848 0.179174
vt 0.865001 0.179856
vt 0.864895 0.179174
vt 0.865059 0.179895
vt 0.864941 0.179174
vt 0.865127 0.179908
vt 0.864988 0.179174
vt 0.865195 0.179895
vt 0.865034 0.179174
vt 0.865253 0.179856
vt 0.865080 0.179174
vt 0.865291 0.179799
vt 0.865127 0.179174
vt 0.865305 0.179730
vt 0.865173 0.179174
vt 0.865291 0.179662
vt 0.865220 0.179174
vt 0.865253 0.179604
vt 0.865266 0.179174
vt 0.865195 0.179566
vt 0.865078 0.179613
vt 0.351387 0.178130
vt 0.865127 0.179603
vt 0.351436 0.178120
vt 0.865037 0.179640
vt 0.351346 0.178157
vt 0.865009 0.179682
vt 0.351318 0.178199
vt 0.865000 0.179730
vt 0.351308 0.178247
vt 0.865009 0.179779
vt 0.351318 0.178296
vt 0.865037 0.179820
vt 0.351346 0.178337
vt 0.865078 0.179848
vt 0.351387 0.178365
vt 0.865127 0.179858
vt 0.351436 0.178375
vt 0.865175 0.179848
vt 0.351484 0.178365
vt 0.865217 0.179820
vt 0.351526 0.178337
vt 0.865244 0.179779
vt 0.351553 0.178296
vt 0.865254 0.179730
vt 0.351563 0.178247
vt 0.865244 0.179682
vt 0.351553 0.178199
vt 0.865217 0.179640
vt 0.351526 0.178157
vt 0.865175 0.179613
vt 0.351484 0.178130
vt 0.351409 0.178182
vt 0.008909 0.209743
vt 0.351436 0.178177
vt 0.008936 0.209738
vt 0.351386 0.178197
vt 0.008886 0.209759
vt 0.351370 0.178220
vt 0.008871 0.209781
vt 0.351365 0.178247
vt 0.008865 0.209808
vt 0.351370 0.178274
vt 0.008871 0.209835
vt 0.351386 0.178297
vt 0.008886 0.209858
vt 0.351409 0.178312
vt 0.008909 0.209874
vt 0.351436 0.178318
vt 0.008936 0.209879
vt 0.351462 0.178312
vt 0.008963 0.209874
vt 0.351485 0.178297
vt 0.008985 0.209858
vt 0.351501 0.178274
vt 0.009001 0.209835
vt 0.351506 0.178247
vt 0.009006 0.209808
vt 0.351501 0.178220
vt 0.009001 0.209781
vt 0.351485 0.178197
vt 0.008985 0.209759
vt 0.351462 0.178182
vt 0.008963 0.209743
vt 0.008936 0.209773
vt 0.737685 0.400154
vt 0.008903 0.209795
vt 0.737653 0.400176
vt 0.008903 0.209822
vt 0.737653 0.400203
vt 0.008922 0.209841
vt 0.737672 0.400222
vt 0.008949 0.209841
vt 0.737699 0.400222
vt 0.008968 0.209822
vt 0.737718 0.400203
vt 0.008968 0.209795
vt 0.737718 0.400176
vt 0.008949 0.209776
vt 0.737699 0.400157
vt 0.864570 0.179545
vt 0.865312 0.179545
vt 0.864570 0.179174
vt 0.865312 0.179174
vt 0.864694 0.179545
vt 0.864694 0.179174
vt 0.864818 0.179545
vt 0.864818 0.179174
vt 0.864941 0.179545
vt 0.864941 0.179174
vt 0.865065 0.179545
vt 0.865065 0.179174
vt 0.865189 0.179545
vt 0.865189 0.179174
s 1
usemtl Material
f 1/1/1 2/4/2 4/8/3 3/7/4
f 3/7/4 4/8/3 6/12/5 5/10/6
f 5/10/6 6/12/5 8/16/7 7/14/8
f 7/14/8 8/16/7 10/21/9 9/18/10
f 4/9/3 2/5/2 12/24/11 10/20/9 8/17/7 6/13/5
f 9/18/10 10/21/9 12/25/11 11/22/12
f 11/22/12 12/25/11 2/6/2 1/2/1
f 1/3/13 3/7/13 5/11/13 7/15/13 9/19/13 11/23/13
f 13/26/1 14/29/2 16/33/3 15/32/4
f 15/32/4 16/33/3 18/37/5 17/35/6
f 17/35/6 18/37/5 20/41/7 19/39/8
f 19/39/8 20/41/7 22/46/9 21/43/10
f 16/34/3 14/30/2 24/49/11 22/45/9 20/42/7 18/38/5
f 21/43/10 22/46/9 24/50/11 23/47/12
f 23/47/12 24/50/11 14/31/2 13/27/1
f 13/28/13 15/32/13 17/36/13 19/40/13 21/44/13 23/48/13
f 25/51/14 46/92/14 45/90/15 27/56/15
f 27/56/15 45/90/15 47/95/16 29/59/16
f 29/59/16 47/95/16 48/97/17 30/60/17
f 30/60/17 48/97/17 49/99/18 31/62/18
f 31/62/18 49/99/18 50/101/19 32/64/19
f 32/64/19 50/101/19 51/103/20 34/68/20
f 34/68/20 51/103/20 52/105/21 35/70/21
f 35/70/21 52/105/21 53/107/13 36/72/13
f 36/72/13 53/107/13 54/109/22 37/74/22
f 37/74/22 54/109/22 55/111/23 39/78/23
f 39/78/23 55/111/23 56/113/24 40/80/24
f 40/80/24 56/113/24 57/115/25 41/82/25
f 41/82/25 57/115/25 58/117/26 42/84/26
f 42/84/26 58/117/26 59/119/27 43/86/27
f 28/57/8 26/54/8 38/76/8 33/66/8
f 43/86/27 59/119/27 60/121/28 44/88/28
f 44/88/28 60/121/28 46/93/14 25/52/14
f 25/53/1 27/56/1 29/59/1 30/61/1 31/63/1 32/65/1 34/69/1 35/71/1 36/73/1 37/75/1 39/79/1 40/81/1 41/83/1 42/85/1 43/87/1 44/89/1
f 62/125/29 61/123/30 45/91/31 46/94/32
f 61/123/30 63/127/33 47/96/34 45/91/31
f 63/127/33 64/129/35 48/98/36 47/96/34
f 64/129/35 65/131/37 49/100/38 48/98/36
f 65/131/37 66/133/39 50/102/40 49/100/38
f 66/133/39 67/135/41 51/104/42 50/102/40
f 67/135/41 68/137/43 52/106/44 51/104/42
f 68/137/43 69/139/45 53/108/46 52/106/44
f 69/139/45 70/141/47 54/110/48 53/108/46
f 70/141/47 71/143/49 55/112/50 54/110/48
f 71/143/49 72/145/51 56/114/52 55/112/50
f 72/145/51 73/147/53 57/116/54 56/114/52
f 73/147/53 74/149/55 58/118/56 57/116/54
f 74/149/55 75/151/57 59/120/58 58/118/56
f 75/151/57 76/153/59 60/122/60 59/120/58
f 76/153/59 62/125/29 46/94/32 60/122/60
f 78/157/8 77/155/8 61/124/30 62/126/29
f 77/155/8 79/159/8 63/128/33 61/124/30
f 79/159/8 80/161/8 64/130/35 63/128/33
f 80/161/8 81/163/8 65/132/37 64/130/35
f 81/163/8 82/165/8 66/134/39 65/132/37
f 82/165/8 83/167/8 67/136/41 66/134/39
f 83/167/8 84/169/8 68/138/43 67/136/41
f 84/169/8 85/171/8 69/140/45 68/138/43
f 85/171/8 86/173/8 70/142/47 69/140/45
f 86/173/8 87/175/8 71/144/49 70/142/47
f 87/175/8 88/177/8 72/146/51 71/144/49
f 88/177/8 89/179/8 73/148/53 72/146/51
f 89/179/8 90/181/8 74/150/55 73/148/53
f 90/181/8 91/183/8 75/152/57 74/150/55
f 91/183/8 92/185/8 76/154/59 75/152/57
f 92/185/8 78/157/8 62/126/29 76/154/59
f 93/187/8 77/156/8 78/158/8
f 93/187/8 94/189/8 79/160/8 77/156/8
f 94/189/8 80/162/8 79/160/8
f 94/189/8 95/191/8 81/164/8 80/162/8
f 95/191/8 82/166/8 81/164/8
f 95/191/8 96/193/8 83/168/8 82/166/8
f 96/193/8 84/170/8 83/168/8
f 96/193/8 97/195/8 85/172/8 84/170/8
f 97/195/8 86/174/8 85/172/8
f 97/195/8 98/197/8 87/176/8 86/174/8
f 98/197/8 88/178/8 87/176/8
f 98/197/8 99/199/8 89/180/8 88/178/8
f 99/199/8 90/182/8 89/180/8
f 99/199/8 100/201/8 91/184/8 90/182/8
f 100/201/8 92/186/8 91/184/8
f 100/201/8 93/187/8 78/158/8 92/186/8
f 26/55/8 28/58/8 93/188/8
f 28/58/8 94/190/8 93/188/8
f 28/58/8 95/192/8 94/190/8
f 28/58/8 33/67/8 95/192/8
f 33/67/8 96/194/8 95/192/8
f 33/67/8 97/196/8 96/194/8
f 33/67/8 38/77/8 97/196/8
f 38/77/8 98/198/8 97/196/8
f 38/77/8 99/200/8 98/198/8
f 38/77/8 26/55/8 99/200/8
f 26/55/8 100/202/8 99/200/8
f 26/55/8 93/188/8 100/202/8
f 101/203/14 102/205/14 104/208/61 103/207/61
f 103/207/61 104/208/61 106/210/62 105/209/62
f 105/209/62 106/210/62 108/212/13 107/211/13
f 107/211/13 108/212/13 110/214/63 109/213/63
f 109/213/63 110/214/63 112/216/64 111/215/64
f 111/215/64 112/216/64 102/206/14 101/204/14
